<svg viewBox="0 0 168 168" fill="none" xmlns="http://www.w3.org/2000/svg">
<path d="M101.016 80.117C103.682 81.6566 103.682 85.5056 101.016 87.0452L77.7656 100.469C75.099 102.008 71.7656 100.084 71.7656 97.0044V70.1577C71.7656 67.0785 75.099 65.154 77.7656 66.6936L101.016 80.117Z" fill="white"/>
<path d="M161.866 92.9246L161.779 94.183L154.656 91.2603L154.712 90.4647L160.307 89.008L154.969 86.7617L155.029 85.9082L162.482 84.072L162.396 85.316L158.036 86.35L157.005 86.5399L157.97 86.8831L162.163 88.6574L162.096 89.6265L157.857 90.7998L156.682 90.9797L157.79 91.3474L161.866 92.9246Z" fill="white"/>
<path d="M154.295 101.093L152.933 101.172L153.195 99.8046L154.267 99.9183C154.267 99.9183 153.949 99.6615 153.72 99.26C153.632 99.109 153.596 98.9241 153.548 98.7221C153.455 98.3038 153.459 97.7721 153.577 97.1894C154.274 93.7503 158.066 94.5334 157.888 97.3823C157.853 97.7747 157.815 98.2552 157.779 98.7214C157.686 99.7677 157.71 100.453 158.05 100.596C158.05 100.596 158.573 100.865 159.171 100.468C159.917 99.998 160.506 97.6762 159.2 97.0416L159.717 95.9481C160.132 96.1652 160.498 96.4761 160.704 96.9174C160.905 97.3132 161.012 97.7344 161.022 98.1951C161.035 98.7894 160.812 100.549 160.022 101.232C159.068 102.075 158.045 101.793 157.215 101.655L154.295 101.093ZM156.044 100.204L156.854 100.368C156.501 99.3353 157.168 97.4289 156.659 96.5858C156.376 96.0846 155.58 95.9973 155.092 96.4311C154.787 96.6948 154.633 97.0925 154.543 97.5331C154.417 98.1584 154.494 98.8695 154.86 99.4022C155.109 99.7782 155.461 100.086 156.044 100.204Z" fill="white"/>
<path d="M154.926 105.29C153.412 104.836 152.898 104.531 152.623 105.448C152.481 105.92 152.54 106.331 152.54 106.331L151.383 106.302C151.693 103.247 152.899 103.366 154.663 103.894C154.676 103.898 154.69 103.903 154.718 103.911L157.385 104.71L158.418 105.05L158.701 103.954L159.66 104.241L159.307 105.316L160.093 105.522L161.492 105.956L161.616 107.31L159.815 106.755L158.962 106.469L158.727 107.353L158.482 108.172L157.523 107.885L157.769 107.065L158.077 106.189L157.037 105.923L154.926 105.29Z" fill="white"/>
<path d="M150.512 111.226C149.965 112.6 150.863 113.391 150.863 113.391L150.13 114.454C150.13 114.454 148.481 113.277 149.509 110.768C150.218 109.037 151.984 108.131 154.426 109.132C156.479 109.973 157.337 111.703 156.562 113.595C155.55 116.064 153.587 115.73 153.587 115.73L153.784 114.447C153.784 114.447 155.134 114.593 155.636 113.216C156.127 111.866 155.287 110.895 153.91 110.315C152.147 109.608 150.952 110.153 150.512 111.226Z" fill="white"/>
<path d="M149.548 122.783C149.08 122.612 147.932 122.022 147.932 122.022L144.91 120.385L145.546 119.212L147.866 120.469C147.866 120.469 148.032 120.559 148.083 120.587L148.3 120.704C148.912 121.036 149.25 121.203 149.25 121.203C150.066 121.645 151.451 122.132 152.079 120.609C152.525 119.481 152.04 118.641 150.958 118.022L147.261 116.018L147.889 114.89L156.748 119.693L156.161 120.776L152.808 118.959C152.808 118.959 153.619 119.959 152.727 121.603C152.202 122.572 151.144 123.368 149.548 122.783Z" fill="white"/>
<path d="M146.074 131.872C144.611 133.764 142.627 133.605 140.917 132.284C139.506 131.193 138.356 129.314 140.006 127.18C141.587 125.159 143.648 125.598 145.105 126.724C146.929 128.134 147.591 129.91 146.074 131.872ZM140.809 127.801C140.028 128.811 140.242 130.075 141.859 131.326C143.339 132.47 144.594 132.175 145.321 131.234C146.03 130.316 145.815 128.959 144.473 127.921C142.809 126.635 141.598 126.78 140.809 127.801Z" fill="white"/>
<path d="M138.745 132.283C139.151 132.571 140.114 133.453 140.114 133.453L142.596 135.829L141.673 136.793L139.757 134.958C139.757 134.958 139.631 134.837 139.579 134.787L139.411 134.627C138.908 134.145 138.626 133.895 138.626 133.895C137.945 133.243 136.737 132.408 135.74 133.722C135.002 134.682 135.248 135.62 136.129 136.503L139.167 139.411L138.274 140.343L132.974 135.27L133.827 134.379L134.602 135.121C134.602 135.121 134.094 133.933 135.377 132.592C136.139 131.796 137.38 131.297 138.745 132.283Z" fill="white"/>
<path d="M132.773 143.64C132.773 143.64 133.153 143.637 133.694 143.132C134.498 142.399 134.381 141.465 133.966 140.808C133.819 140.571 132.973 139.615 132.973 139.615L130.848 137.178L131.813 136.344L136.602 141.884L135.647 142.709L135.012 141.974C135.012 141.974 135.312 143.075 134.262 144.078C133.634 144.659 132.96 144.744 132.96 144.744C132.874 144.223 132.847 144.17 132.773 143.64Z" fill="white"/>
<path d="M123.903 142.576L127.991 148.651L126.92 149.372L122.856 143.28L123.903 142.576ZM127.77 150.635L128.841 149.914L129.545 150.961L128.475 151.681L127.77 150.635Z" fill="white"/>
<path d="M118.363 152.016C118.059 151.621 117.402 150.51 117.402 150.51L115.72 147.513L116.876 146.848L118.175 149.162C118.175 149.162 118.267 149.326 118.295 149.377L118.416 149.592C118.749 150.186 118.947 150.508 118.947 150.508C119.408 151.329 120.32 152.48 121.657 151.514C122.642 150.811 122.68 149.842 122.095 148.74L120.037 145.074L121.162 144.442L124.753 150.84L123.679 151.443L123.161 150.52C123.161 150.52 123.313 151.798 121.682 152.714C120.721 153.253 119.394 153.349 118.363 152.016Z" fill="white"/>
<path d="M113.554 151.906C112.912 150.462 112.808 149.873 111.934 150.262C111.484 150.463 111.21 150.775 111.21 150.775L110.478 149.879C112.997 148.123 113.693 149.115 114.441 150.797C114.447 150.81 114.453 150.823 114.465 150.85L115.597 153.393L116.013 154.399L117.029 153.899L117.435 154.813L116.39 155.246L116.747 155.976L117.329 157.32L116.383 158.297L115.63 156.569L115.291 155.736L114.468 156.134L113.687 156.482L113.28 155.568L114.061 155.22L114.927 154.882L114.451 153.92L113.554 151.906Z" fill="white"/>
<path d="M107.293 157.547C107.293 157.547 107.648 157.684 108.336 157.412C109.353 157.026 109.588 156.114 109.444 155.351C109.394 155.076 108.959 153.876 108.959 153.876L107.878 150.829L109.082 150.408L111.499 157.32L110.309 157.736L109.988 156.819C109.988 156.819 109.862 157.954 108.518 158.501C107.72 158.811 107.061 158.641 107.061 158.641C107.173 158.126 107.168 158.067 107.293 157.547Z" fill="white"/>
<path d="M102.48 160.315C100.158 160.888 98.7023 159.53 98.1849 157.432C97.7577 155.701 98.0248 153.514 100.643 152.868C103.139 152.267 104.48 153.893 104.921 155.681C105.474 157.919 104.888 159.721 102.48 160.315ZM100.886 153.853C99.6475 154.159 99.0286 155.283 99.5182 157.268C99.9662 159.084 101.132 159.632 102.286 159.348C103.413 159.07 104.088 157.873 103.682 156.225C103.178 154.184 102.139 153.544 100.886 153.853Z" fill="white"/>
<path d="M87.7905 162.305L86.4609 162.413L88.6733 154.902L89.9018 154.802L93.3848 161.866L91.9829 161.98L89.8806 157.408L89.3977 156.298L89.1435 157.468L87.7905 162.305Z" fill="white"/>
<path d="M83.1055 161.096V153.774H84.396L84.367 161.096H83.1055ZM84.396 152.251H83.1055V150.99H84.396V152.251Z" fill="white"/>
<path d="M74.8906 164.745L73.6622 164.646L74.4799 154.572L75.7084 154.672L75.6298 155.64C75.6298 155.64 76.3392 154.607 77.9145 154.735C78.9406 154.818 80.8229 155.465 80.5519 158.804C80.2668 162.316 78.2681 162.386 77.242 162.303C75.6666 162.175 75.198 160.959 75.198 160.959C75.198 160.959 74.927 164.297 74.8906 164.745ZM77.5555 155.753C76.8328 155.694 75.6477 156.136 75.467 158.362C75.2922 160.516 76.3245 161.239 77.1026 161.332C78.3697 161.493 79.1987 160.6 79.3453 158.793C79.5049 156.828 78.7839 155.853 77.5555 155.753Z" fill="white"/>
<path d="M68.6325 161.162C66.0409 160.742 65.6521 158.601 65.9211 157.191C65.9646 156.963 66.0189 156.678 66.0854 156.484L66.0881 156.47L71.2184 157.434C71.2184 157.434 71.7915 155.048 69.655 154.641C68.1879 154.361 67.6335 155.333 67.6335 155.333L66.4854 154.774C66.4854 154.774 67.4265 153.168 69.7339 153.608C71.3434 153.915 72.1585 154.749 72.4526 155.839C72.9913 157.89 71.9702 161.696 68.6325 161.162ZM67.2131 157.615C67.2131 157.615 66.6754 159.815 68.7121 160.203C70.6207 160.567 71.0445 158.345 71.0445 158.345L67.2131 157.615Z" fill="white"/>
<path d="M60.2963 159.14C58.0071 158.444 57.4513 156.533 58.0793 154.465C58.5977 152.759 59.9454 151.016 62.526 151.8C64.9774 152.56 65.2993 154.643 64.7641 156.405C64.0939 158.611 62.6688 159.86 60.2963 159.14ZM62.2309 152.771C61.01 152.401 59.9036 153.049 59.3093 155.006C58.7656 156.795 59.4869 157.863 60.6246 158.209C61.7345 158.546 62.9271 157.863 63.4202 156.239C64.0314 154.228 63.4657 153.147 62.2309 152.771Z" fill="white"/>
<path d="M52.2104 153.536C52.0613 153.861 51.8775 154.053 51.6589 154.112C51.4403 154.172 51.2211 154.151 51.0014 154.05C50.773 153.945 50.6099 153.791 50.5122 153.587C50.4057 153.378 50.427 153.111 50.5761 152.786C50.7211 152.47 50.9094 152.28 51.1408 152.216C51.3634 152.148 51.589 152.166 51.8174 152.271C52.0371 152.372 52.1938 152.529 52.2875 152.742C52.3811 152.955 52.3555 153.219 52.2104 153.536Z" fill="white"/>
<path d="M36.7287 147.129L35.677 146.433L41.7313 141.677L42.3962 142.117L40.9049 147.704L45.4909 144.167L46.2042 144.639L44.1271 152.029L43.0875 151.341L44.3373 147.038L44.6802 146.048L43.906 146.717L40.2949 149.491L39.485 148.955L40.554 144.689L40.9769 143.577L40.1106 144.36L36.7287 147.129Z" fill="white"/>
<path d="M33.5242 136.644L34.1237 135.418L35.1864 136.317L34.5616 137.195C34.5616 137.195 34.9412 137.044 35.4036 137.042C35.5782 137.039 35.7573 137.098 35.9568 137.156C36.3667 137.28 36.8281 137.544 37.2779 137.933C39.9328 140.228 37.3903 143.147 34.995 141.595C34.6704 141.372 34.2704 141.103 33.8814 140.843C33.0157 140.248 32.4067 139.933 32.1148 140.16C32.1148 140.16 31.6244 140.483 31.6765 141.199C31.7201 142.08 33.4544 143.732 34.6484 142.905L35.3474 143.892C34.9547 144.147 34.5042 144.314 34.0184 144.277C33.5749 144.258 33.1555 144.144 32.749 143.927C32.2249 143.647 30.8011 142.589 30.593 141.566C30.3275 140.321 31.0745 139.567 31.6025 138.912L33.5242 136.644ZM33.4407 138.603L32.9003 139.229C33.9737 139.428 35.3075 140.945 36.2922 140.914C36.8678 140.913 37.3344 140.263 37.1955 139.625C37.1153 139.23 36.8445 138.9 36.5045 138.606C36.0218 138.189 35.3639 137.908 34.7204 137.965C34.2705 137.998 33.8295 138.153 33.4407 138.603Z" fill="white"/>
<path d="M29.4309 134.989C30.5726 133.896 31.0919 133.6 30.4301 132.909C30.0891 132.553 29.7027 132.401 29.7027 132.401L30.2987 131.409C32.8033 133.186 32.1048 134.176 30.7746 135.449C30.7642 135.459 30.7537 135.469 30.7327 135.49L28.7217 137.415L27.9161 138.146L28.7296 138.933L28.0069 139.625L27.2458 138.788L26.6793 139.37L25.6113 140.372L24.3724 139.812L25.7441 138.519L26.4135 137.918L25.7608 137.278L25.1692 136.66L25.892 135.969L26.4836 136.587L27.0939 137.287L27.8389 136.514L29.4309 134.989Z" fill="white"/>
<path d="M26.5254 128.333C25.5967 127.182 24.4667 127.576 24.4667 127.576L23.9004 126.416C23.9004 126.416 25.7351 125.557 27.4168 127.684C28.5769 129.151 28.4999 131.134 26.4298 132.771C24.6895 134.147 22.7607 134.045 21.4927 132.442C19.8379 130.349 21.0923 128.802 21.0923 128.802L22.1135 129.603C22.1135 129.603 21.3237 130.708 22.2775 131.821C23.2133 132.911 24.4716 132.656 25.6521 131.741C27.1332 130.551 27.2448 129.243 26.5254 128.333Z" fill="white"/>
<path d="M16.9427 121.864C17.3209 121.539 18.3968 120.826 18.3968 120.826L21.3029 118.992L22.0149 120.12L19.7832 121.529C19.7832 121.529 19.6237 121.629 19.5747 121.66L19.3662 121.792C18.7777 122.163 18.4666 122.377 18.4666 122.377C17.6818 122.872 16.5794 123.842 17.6011 125.135C18.366 126.075 19.3358 126.063 20.4058 125.422L23.9618 123.178L24.6383 124.277L16.1162 129.656L15.4584 128.613L18.6833 126.578C18.6833 126.578 17.4147 126.796 16.4164 125.214C15.8282 124.282 15.6518 122.97 16.9427 121.864Z" fill="white"/>
<path d="M10.7799 114.527C9.83966 112.327 10.9456 110.672 12.9323 109.823C14.5723 109.122 16.7734 109.033 17.8332 111.513C18.8285 113.879 17.4408 115.465 15.7475 116.189C13.6275 117.095 11.7543 116.807 10.7799 114.527ZM16.8999 111.912C16.3985 110.739 15.1899 110.309 13.3099 111.112C11.5899 111.848 11.2364 113.087 11.7037 114.18C12.1595 115.247 13.4499 115.72 15.0099 115.053C16.9433 114.227 17.4071 113.099 16.8999 111.912Z" fill="white"/>
<path d="M13.985 107.888C13.5343 108.101 12.2941 108.508 12.2941 108.508L9.00599 109.507L8.61823 108.23L11.1572 107.459C11.1572 107.459 11.3236 107.408 11.393 107.387L11.615 107.32C12.2809 107.118 12.6374 106.994 12.6374 106.994C13.5392 106.72 14.8592 106.077 14.2026 104.564C13.7279 103.45 12.7895 103.205 11.588 103.54L7.56452 104.762L7.18941 103.527L14.2096 101.394L14.5679 102.574L13.5412 102.886C13.5412 102.886 14.8264 103.026 15.3659 104.801C15.6862 105.856 15.513 107.181 13.985 107.888Z" fill="white"/>
<path d="M7.02101 97.1378C7.02101 97.1378 6.83702 97.471 7.01231 98.19C7.25671 99.2501 8.12779 99.6061 8.90402 99.5672C9.18267 99.5551 10.4304 99.2875 10.4304 99.2875L13.5966 98.6311L13.85 99.8817L6.67337 101.336L6.42283 100.1L7.37497 99.9066C7.37497 99.9066 6.26807 99.6279 5.90904 98.2212C5.71071 97.3885 5.96789 96.7594 5.96789 96.7594C6.46315 96.9401 6.52287 96.9428 7.02101 97.1378Z" fill="white"/>
<path d="M12.2953 89.8284L4.99463 90.3928L4.89517 89.1061L12.1981 88.5707L12.2953 89.8284ZM3.3772 89.2235L3.47665 90.5101L2.21891 90.6073L2.11945 89.3207L3.3772 89.2235Z" fill="white"/>
<path d="M6.80711 80.243C7.30039 80.1724 8.59099 80.1483 8.59099 80.1483L12.0275 80.1616L12.0368 81.4956L9.38334 81.4854C9.38334 81.4854 9.19484 81.4847 9.13684 81.4845L8.89034 81.4835C8.20885 81.4809 7.83179 81.4939 7.83179 81.4939C6.8893 81.4903 5.43841 81.7167 5.62059 83.3559C5.74644 84.5599 6.57098 85.0706 7.81785 85.1044L12.0228 85.1206L12.0178 86.4111L4.6809 86.3828L4.68565 85.1503L5.74415 85.1544C5.74415 85.1544 4.55706 84.6568 4.56428 82.7863C4.56853 81.6843 5.13867 80.483 6.80711 80.243Z" fill="white"/>
<path d="M9.26278 76.1471C10.8359 76.2992 11.3993 76.4993 11.4914 75.5468C11.5389 75.0561 11.402 74.6641 11.402 74.6641L12.5426 74.4685C12.8296 77.5263 11.6238 77.6428 9.79084 77.4655C9.7764 77.4641 9.76197 77.4627 9.7331 77.4599L6.96203 77.192L5.88237 77.0584L5.81681 78.1884L4.82096 78.0921L4.95868 76.9691L4.14766 76.9198L2.69135 76.7644L2.30763 75.46L4.18248 75.6558L5.07452 75.7712L5.13357 74.8592L5.21591 74.0076L6.21177 74.1039L6.12943 74.9555L5.99681 75.875L7.06902 75.9349L9.26278 76.1471Z" fill="white"/>
<path d="M7.41823 67.9456C7.41823 67.9456 7.12452 68.1877 7.02286 68.9208C6.85992 69.9964 7.53877 70.6481 8.27484 70.8976C8.53838 70.9889 9.797 71.1993 9.797 71.1993L12.9825 71.7544L12.7579 73.0105L5.54976 71.7211L5.77188 70.4793L6.7282 70.6504C6.7282 70.6504 5.80159 69.9838 5.98554 68.5437C6.10762 67.6965 6.57831 67.2062 6.57831 67.2062C6.97227 67.5565 7.02681 67.581 7.41823 67.9456Z" fill="white"/>
<path d="M7.37517 62.35C8.01844 60.0456 9.91694 59.4465 11.9979 60.0274C13.7157 60.507 15.4884 61.8147 14.7632 64.4124C14.0592 66.8805 11.984 67.2496 10.2103 66.7545C7.98973 66.1346 6.7085 64.7382 7.37517 62.35ZM13.7856 64.1395C14.1287 62.9105 13.4548 61.8191 11.4856 61.2694C9.68396 60.7665 8.63285 61.5118 8.31316 62.657C8.00127 63.7743 8.71152 64.9511 10.3455 65.4073C12.3706 65.9726 13.4386 65.3825 13.7856 64.1395Z" fill="white"/>
<path d="M12.8128 48.6723L13.3734 47.4618L18.8228 53.0854L18.3048 54.2038L10.4416 53.7582L11.0326 52.482L16.0471 52.9026L17.2511 53.0287L16.3579 52.2316L12.8128 48.6723Z" fill="white"/>
<path d="M20.8901 49.0724L14.518 45.4648L15.1538 44.3418L21.5116 47.9746L20.8901 49.0724ZM13.8289 43.5917L13.1931 44.7147L12.0953 44.0932L12.7311 42.9702L13.8289 43.5917Z" fill="white"/>
<path d="M16.9097 36.4117L17.6015 35.3917L25.9656 41.0647L25.2738 42.0847L24.4698 41.5394C24.4698 41.5394 25.0198 42.6658 24.1326 43.9738C23.5547 44.8258 22.0642 46.1451 19.2922 44.265C16.3762 42.2871 17.2992 40.5129 17.8771 39.6609C18.7643 38.3529 20.0537 38.5441 20.0537 38.5441C20.0537 38.5441 17.2817 36.664 16.9097 36.4117ZM23.4233 43.1598C23.8302 42.5598 24.0292 41.3106 22.1812 40.0572C20.3932 38.8444 19.2547 39.3863 18.7912 40.0181C18.0269 41.0415 18.3957 42.2027 19.8957 43.2201C21.5278 44.327 22.7314 44.1798 23.4233 43.1598Z" fill="white"/>
<path d="M22.9859 32.8388C24.6249 30.7877 26.6807 31.5003 27.7769 32.427C27.9541 32.5768 28.1756 32.764 28.3119 32.9172L28.323 32.9266L24.9641 36.9224C24.9641 36.9224 26.7606 38.593 28.1647 36.9319C29.1289 35.7914 28.5546 34.8312 28.5546 34.8312L29.605 34.1052C29.605 34.1052 30.5423 35.7141 29.0258 37.508C27.9681 38.7593 26.8408 39.0595 25.7474 38.7808C23.696 38.2427 20.8823 35.4844 22.9859 32.8388ZM26.7735 33.3445C26.7735 33.3445 25.1209 31.7956 23.7823 33.3791C22.5279 34.8629 24.2554 36.3233 24.2554 36.3233L26.7735 33.3445Z" fill="white"/>
<path d="M29.0315 26.3396C30.7657 24.6914 32.7027 25.151 34.1911 26.717C35.4198 28.0098 36.2706 30.0417 34.3157 31.8997C32.4453 33.6572 30.4746 32.9096 29.206 31.5748C27.6178 29.9036 27.2342 28.0477 29.0315 26.3396ZM33.6164 31.1639C34.5414 30.2849 34.5227 29.0024 33.1143 27.5204C31.8257 26.1645 30.5411 26.2652 29.6792 27.0843C28.8384 27.8834 28.8444 29.2579 30.0132 30.4876C31.4616 32.0117 32.681 32.0529 33.6164 31.1639Z" fill="white"/>
<path d="M37.5925 22.2341C37.3821 21.9448 37.3046 21.6904 37.36 21.4708C37.4154 21.2512 37.5408 21.0703 37.7363 20.9281C37.9395 20.7803 38.1541 20.7138 38.3802 20.7287C38.614 20.7379 38.8361 20.8872 39.0465 21.1764C39.2512 21.4578 39.3248 21.7151 39.2672 21.9482C39.2175 22.1756 39.091 22.3633 38.8878 22.5111C38.6923 22.6533 38.4788 22.713 38.2471 22.6903C38.0154 22.6676 37.7972 22.5155 37.5925 22.2341Z" fill="white"/>
<path d="M50.718 11.813L51.8401 11.2366L53.0253 18.8436L52.3159 19.208L48.1735 15.174L49.014 20.904L48.253 21.2949L42.8245 15.8676L43.9337 15.2979L47.0747 18.4932L47.7707 19.2768L47.5652 18.2739L46.9131 13.7674L47.7773 13.3236L50.9748 16.3432L51.737 17.2558L51.4781 16.1173L50.718 11.813Z" fill="white"/>
<path d="M61.7154 14.0027L62.488 15.1275L61.1824 15.6106L60.725 14.6346C60.725 14.6346 60.6698 15.0395 60.4449 15.4435C60.3611 15.5967 60.2218 15.7236 60.0736 15.8691C59.7637 16.1649 59.3065 16.4365 58.7468 16.637C55.4434 17.8202 54.1515 14.1705 56.6814 12.8485C57.0353 12.6756 57.4662 12.4596 57.8835 12.2486C58.8272 11.7873 59.4014 11.4122 59.3474 11.0465C59.3474 11.0465 59.3069 10.4604 58.658 10.1537C57.8695 9.75843 55.578 10.456 55.711 11.9023L54.5075 12.0254C54.4788 11.5582 54.5554 11.0841 54.8262 10.6791C55.0609 10.3023 55.3659 9.99287 55.7549 9.74574C56.2569 9.42731 57.8783 8.70794 58.8715 9.02988C60.0862 9.41111 60.3749 10.4321 60.6858 11.214L61.7154 14.0027ZM60.0505 12.9664L59.7718 12.1883C59.0703 13.0248 57.0936 13.4402 56.6359 14.3126C56.3536 14.8142 56.6907 15.5406 57.3142 15.7331C57.6976 15.8576 58.1179 15.7841 58.5411 15.6325C59.1417 15.4174 59.71 14.9828 59.9767 14.3944C60.1694 13.9865 60.2509 13.5261 60.0505 12.9664Z" fill="white"/>
<path d="M65.1196 11.2483C65.5098 12.7798 65.5125 13.3777 66.4399 13.1414C66.9176 13.0197 67.24 12.758 67.24 12.758L67.8107 13.7648C65.0312 15.0714 64.5129 13.9765 64.0583 12.192C64.0547 12.1779 64.0511 12.1639 64.044 12.1358L63.3567 9.43795L63.1163 8.37696L62.031 8.69832L61.784 7.72879L62.8872 7.47768L62.6586 6.69797L62.3111 5.27522L63.4083 4.472L63.8596 6.30223L64.0534 7.18057L64.9315 6.92695L65.7605 6.71575L66.0075 7.68528L65.1785 7.89648L64.2685 8.08342L64.5755 9.11247L65.1196 11.2483Z" fill="white"/>
<path d="M72.4563 11.9624C73.9156 11.7212 74.129 10.5435 74.129 10.5435L75.4178 10.6222C75.4178 10.6222 75.2618 12.6421 72.5824 13.0581C70.734 13.345 69.0459 12.3011 68.6411 9.69338C68.3007 7.50114 69.3392 5.87255 71.3595 5.5589C73.9959 5.1496 74.7238 7.00286 74.7238 7.00286L73.524 7.49728C73.524 7.49728 72.9512 6.26557 71.513 6.54755C70.1033 6.82509 69.7059 8.04601 69.9207 9.52406C70.2265 11.3988 71.3101 12.1404 72.4563 11.9624Z" fill="white"/>
<path d="M82.3754 6.81976C82.4725 7.30851 82.5662 8.59593 82.5662 8.59593L82.7385 12.0281L81.4062 12.095L81.2739 9.45932C81.2739 9.45932 81.2644 9.27105 81.2615 9.21313L81.2492 8.96694C81.2143 8.27181 81.1809 7.89601 81.1809 7.89601C81.1343 6.96918 80.8299 5.53264 79.2022 5.78858C78.0075 5.99375 77.5421 6.84465 77.5756 8.09154L77.7865 12.2913L76.4969 12.3415L75.9916 2.27666L77.2225 2.21485L77.4137 6.02356C77.4137 6.02356 77.8465 4.81133 79.7146 4.71754C80.8153 4.66228 82.0449 5.15224 82.3754 6.81976Z" fill="white"/>
<path d="M92.6607 5.07972C95.0372 5.35575 95.925 7.13759 95.6758 9.28366C95.47 11.0553 94.4547 13.0102 91.7757 12.699C89.228 12.3885 88.5398 10.3963 88.7522 8.56708C89.0182 6.27698 90.1977 4.79366 92.6607 5.07972ZM91.8928 11.6908C93.1603 11.838 94.1332 11.0022 94.3691 8.97132C94.5849 7.11331 93.6848 6.1913 92.5037 6.05412C91.3514 5.92029 90.2998 6.80537 90.1041 8.49054C89.8615 10.579 90.6109 11.5419 91.8928 11.6908Z" fill="white"/>
<path d="M96.7518 11.1254C96.79 10.6285 97.0501 9.34938 97.0501 9.34938L97.8095 5.99784L99.1105 6.29262L98.5241 8.88052C98.5241 8.88052 98.4857 9.05022 98.4697 9.12093L98.4184 9.34719C98.2646 10.026 98.1954 10.3969 98.1954 10.3969C97.9872 11.3161 97.893 12.7815 99.5326 12.9597C100.735 13.0984 101.413 12.4045 101.717 11.1947L102.646 7.09368L103.904 7.37885L102.283 14.5345L101.081 14.2621L101.318 13.2156C101.318 13.2156 100.561 14.2631 98.7504 13.853C97.6757 13.6094 96.6095 12.8029 96.7518 11.1254Z" fill="white"/>
<path d="M109.556 10.3847C109.556 10.3847 109.358 10.06 108.646 9.85658C107.604 9.54453 106.863 10.1254 106.513 10.8192C106.386 11.0673 106.001 12.2841 106.001 12.2841L105.005 15.3604L103.793 14.9619L106.08 8.00561L107.278 8.39955L106.975 9.32247C106.975 9.32247 107.765 8.4984 109.165 8.88233C109.987 9.12193 110.406 9.65667 110.406 9.65667C110.004 9.99766 109.972 10.0482 109.556 10.3847Z" fill="white"/>
<path d="M112.982 18.4257L116.084 11.7926L117.253 12.3392L114.125 18.9601L112.982 18.4257ZM117.898 10.9601L116.729 10.4134L117.263 9.2707L118.432 9.81735L117.898 10.9601Z" fill="white"/>
<path d="M124.017 18.347C123.835 18.8111 123.22 19.9461 123.22 19.9461L121.516 22.9303L120.351 22.2814L121.667 19.9771C121.667 19.9771 121.76 19.8134 121.789 19.7631L121.911 19.549C122.249 18.9572 122.423 18.6226 122.423 18.6226C122.891 17.8042 123.408 16.43 121.892 15.7812C120.782 15.2977 119.932 15.7638 119.288 16.8323L117.203 20.4838L116.082 19.8439L119.72 13.4725L120.791 14.0837L120.266 15.0029C120.266 15.0029 121.284 14.2148 122.908 15.1424C123.865 15.6889 124.63 16.7767 124.017 18.347Z" fill="white"/>
<path d="M126.591 22.6458C125.68 23.9374 125.227 24.3278 126.009 24.8794C126.412 25.1635 126.821 25.2386 126.821 25.2386L126.426 26.3265C123.627 25.0622 124.123 23.9568 125.184 22.4519C125.193 22.4401 125.201 22.4282 125.218 22.4046L126.822 20.1295L127.473 19.2575L126.523 18.6412L127.1 17.8236L128.008 18.4992L128.452 17.8189L129.308 16.6305L130.631 16.9428L129.533 18.4749L128.991 19.1928L129.754 19.6956L130.453 20.1887L129.877 21.0063L129.178 20.5132L128.444 19.9428L127.861 20.8447L126.591 22.6458Z" fill="white"/>
<path d="M134.647 25.1136C134.647 25.1136 134.582 24.7386 133.995 24.2876C133.141 23.6139 132.239 23.8814 131.658 24.3977C131.448 24.5815 130.643 25.5713 130.643 25.5713L128.584 28.065L127.604 27.2484L132.291 21.622L133.26 22.4294L132.638 23.1759C132.638 23.1759 133.676 22.7004 134.836 23.5727C135.512 24.0979 135.705 24.7495 135.705 24.7495C135.206 24.9186 135.158 24.9539 134.647 25.1136Z" fill="white"/>
<path d="M139.265 27.5725C140.957 29.2643 140.547 31.2124 139.019 32.7401C137.758 34.0012 135.749 34.9035 133.841 32.9964C132.037 31.1713 132.734 29.1823 134.036 27.8801C135.667 26.2499 137.512 25.8193 139.265 27.5725ZM134.559 32.2787C135.461 33.1809 136.743 33.1297 138.189 31.684C139.511 30.3614 139.378 29.0797 138.537 28.239C137.717 27.4187 136.343 27.4597 135.144 28.6593C133.657 30.146 133.647 31.3662 134.559 32.2787Z" fill="white"/>
<path d="M148.609 39.1008L149.39 40.1824L141.818 42.1789L141.096 41.1795L145.336 34.5424L146.159 35.6828L143.337 39.8485L142.637 40.8364L143.769 40.4481L148.609 39.1008Z" fill="white"/>
<path d="M144.3 45.9318L150.563 42.1381L151.231 43.2419L144.953 47.0108L144.3 45.9318ZM152.534 42.4531L151.865 41.3493L152.944 40.6957L153.613 41.7995L152.534 42.4531Z" fill="white"/>
<path d="M157.314 48.6985L157.865 49.801L148.824 54.3185L148.273 53.216L149.142 52.7818C149.142 52.7818 147.891 52.7101 147.184 51.2963C146.724 50.3754 146.303 48.4299 149.299 46.9327C152.451 45.3577 153.547 47.031 154.007 47.952C154.713 49.3658 153.916 50.3966 153.916 50.3966C153.916 50.3966 156.912 48.8994 157.314 48.6985ZM148.241 51.0761C148.566 51.7246 149.557 52.5095 151.555 51.5114C153.488 50.5457 153.572 49.2877 153.248 48.5743C152.73 47.4069 151.537 47.1602 149.915 47.9704C148.151 48.8519 147.691 49.9736 148.241 51.0761Z" fill="white"/>
<path d="M157.523 55.9386C158.504 58.3741 156.873 59.8142 155.527 60.3135C155.31 60.3941 155.038 60.495 154.838 60.5384L154.824 60.5435L152.995 55.6544C152.995 55.6544 150.657 56.3979 151.413 58.4371C151.933 59.8374 153.051 59.8091 153.051 59.8091L153.167 61.0806C153.167 61.0806 151.306 61.1063 150.489 58.9039C149.919 57.3677 150.211 56.2385 150.991 55.4232C152.468 53.9011 156.253 52.8063 157.523 55.9386ZM155.222 58.9886C155.222 58.9886 157.383 58.3107 156.662 56.3666C155.986 54.5449 153.865 55.3316 153.865 55.3316L155.222 58.9886Z" fill="white"/>
<path d="M160.164 64.2731C160.745 66.5938 159.392 68.0541 157.297 68.5796C155.567 69.0133 153.379 68.7545 152.723 66.1385C152.113 63.6455 153.734 62.2975 155.52 61.8497C157.756 61.289 159.561 61.868 160.164 64.2731ZM153.708 65.8916C154.018 67.1293 155.144 67.744 157.127 67.2468C158.941 66.7919 159.486 65.624 159.197 64.4707C158.914 63.3455 157.715 62.6746 156.069 63.0872C154.03 63.5985 153.394 64.6399 153.708 65.8916Z" fill="white"/>
<path d="M159.55 74.0362C159.905 73.9963 160.165 74.0547 160.328 74.2115C160.492 74.3682 160.587 74.5666 160.614 74.8068C160.642 75.0566 160.594 75.276 160.469 75.4651C160.345 75.6638 160.106 75.7831 159.75 75.823C159.405 75.8618 159.145 75.7986 158.97 75.6333C158.797 75.4776 158.697 75.2749 158.669 75.0252C158.642 74.785 158.695 74.5698 158.83 74.3797C158.964 74.1895 159.204 74.075 159.55 74.0362Z" fill="white"/>
</svg>
