<svg width="169" height="169" viewBox="0 0 169 169" fill="none" xmlns="http://www.w3.org/2000/svg">
<path d="M154.07 85.9379L162.127 84.0827L162.039 85.3566L155.879 86.6419L155.874 86.724L161.797 88.829L161.707 90.1235L155.571 91.3691L155.565 91.4513L161.467 93.5754L161.379 94.8493L153.656 91.8965L153.739 90.7048L159.92 89.4005L159.929 89.2772L153.987 87.1296L154.07 85.9379Z" fill="white"/>
<path d="M152.46 98.2085C152.559 97.7173 152.742 97.2903 153.008 96.9274C153.278 96.5653 153.613 96.3022 154.014 96.1383C154.418 95.975 154.873 95.9445 155.377 96.0468C155.822 96.1368 156.164 96.2972 156.404 96.5281C156.648 96.7596 156.819 97.0378 156.918 97.3625C157.017 97.6872 157.069 98.0341 157.075 98.403C157.084 98.776 157.075 99.1473 157.049 99.5168C157.014 100 156.982 100.391 156.953 100.69C156.927 100.993 156.939 101.219 156.989 101.37C157.038 101.523 157.159 101.62 157.351 101.658L157.391 101.667C157.889 101.768 158.303 101.71 158.635 101.493C158.965 101.28 159.186 100.899 159.297 100.351C159.412 99.782 159.378 99.311 159.194 98.9376C159.011 98.5641 158.791 98.2832 158.535 98.0947L159.168 97.0461C159.598 97.3434 159.91 97.6868 160.104 98.0765C160.301 98.4701 160.411 98.8777 160.435 99.2992C160.46 99.7247 160.434 100.133 160.355 100.523C160.304 100.772 160.216 101.052 160.09 101.362C159.967 101.677 159.784 101.968 159.54 102.234C159.297 102.503 158.971 102.701 158.563 102.829C158.156 102.956 157.644 102.958 157.028 102.833L151.921 101.798L152.163 100.607L153.212 100.82L153.225 100.759C153.073 100.644 152.92 100.473 152.766 100.246C152.613 100.019 152.501 99.7352 152.429 99.395C152.358 99.0549 152.368 98.6594 152.46 98.2085ZM153.493 98.607C153.397 99.078 153.409 99.4938 153.529 99.8542C153.648 100.218 153.837 100.512 154.096 100.736C154.355 100.964 154.646 101.11 154.969 101.176L156.059 101.397C156.008 101.334 155.975 101.212 155.96 101.03C155.947 100.852 155.944 100.648 155.952 100.419C155.963 100.193 155.976 99.9736 155.991 99.7595C156.009 99.5495 156.023 99.3789 156.032 99.2476C156.054 98.9299 156.047 98.6273 156.011 98.3397C155.977 98.0562 155.888 97.814 155.743 97.613C155.601 97.416 155.378 97.2869 155.076 97.2255C154.662 97.1417 154.318 97.2314 154.044 97.4946C153.773 97.7618 153.589 98.1326 153.493 98.607Z" fill="white"/>
<path d="M158.087 108.668L157.101 108.373L158.277 104.446L159.264 104.742L158.087 108.668ZM160.736 106.43L160.387 107.594L153.166 105.43C152.837 105.332 152.576 105.306 152.383 105.352C152.193 105.402 152.047 105.495 151.945 105.629C151.846 105.768 151.771 105.923 151.72 106.094C151.682 106.222 151.657 106.329 151.645 106.415C151.637 106.502 151.631 106.572 151.626 106.624L150.509 106.548C150.503 106.46 150.506 106.341 150.519 106.191C150.529 106.039 150.566 105.855 150.631 105.638C150.73 105.309 150.897 105.008 151.133 104.735C151.368 104.465 151.661 104.27 152.013 104.149C152.363 104.032 152.759 104.04 153.199 104.172L160.736 106.43Z" fill="white"/>
<path d="M148.384 111.509C148.665 110.823 149.069 110.298 149.596 109.935C150.123 109.573 150.726 109.374 151.404 109.341C152.082 109.307 152.786 109.44 153.516 109.739C154.26 110.044 154.86 110.449 155.316 110.955C155.775 111.466 156.063 112.033 156.182 112.657C156.303 113.285 156.228 113.93 155.958 114.59C155.747 115.105 155.462 115.53 155.102 115.864C154.742 116.199 154.336 116.428 153.885 116.551C153.434 116.674 152.967 116.674 152.484 116.55L152.944 115.425C153.313 115.476 153.687 115.407 154.065 115.217C154.445 115.031 154.737 114.691 154.94 114.195C155.119 113.757 155.163 113.326 155.069 112.902C154.978 112.482 154.763 112.096 154.426 111.742C154.09 111.393 153.646 111.106 153.094 110.879C152.528 110.647 151.999 110.534 151.507 110.541C151.014 110.55 150.584 110.67 150.218 110.903C149.851 111.138 149.576 111.478 149.394 111.923C149.274 112.215 149.216 112.501 149.22 112.781C149.224 113.061 149.288 113.322 149.411 113.566C149.534 113.809 149.714 114.02 149.952 114.199L149.491 115.324C149.085 115.083 148.761 114.766 148.517 114.374C148.276 113.985 148.137 113.545 148.102 113.052C148.069 112.563 148.162 112.049 148.384 111.509Z" fill="white"/>
<path d="M150.509 118.579L146.326 116.311L146.905 115.243L156.176 120.268L155.597 121.337L152.193 119.491L152.144 119.582C152.415 119.939 152.567 120.339 152.602 120.779C152.638 121.224 152.508 121.72 152.212 122.266C151.955 122.74 151.635 123.103 151.252 123.356C150.872 123.611 150.434 123.731 149.938 123.716C149.444 123.706 148.898 123.539 148.3 123.215L143.882 120.82L144.461 119.752L148.807 122.107C149.359 122.407 149.864 122.495 150.321 122.372C150.78 122.253 151.146 121.942 151.419 121.438C151.609 121.088 151.705 120.734 151.707 120.376C151.708 120.021 151.61 119.687 151.413 119.373C151.215 119.063 150.913 118.798 150.509 118.579Z" fill="white"/>
<path d="M139.078 127.27C139.515 126.705 140.032 126.313 140.631 126.095C141.227 125.879 141.86 125.838 142.528 125.973C143.194 126.111 143.85 126.429 144.496 126.929C145.148 127.433 145.626 127.991 145.929 128.603C146.231 129.217 146.352 129.841 146.294 130.472C146.233 131.106 145.984 131.706 145.547 132.271C145.111 132.836 144.594 133.226 143.998 133.442C143.399 133.661 142.766 133.7 142.097 133.561C141.426 133.424 140.765 133.103 140.113 132.6C139.466 132.1 138.994 131.544 138.695 130.931C138.394 130.321 138.274 129.699 138.335 129.065C138.394 128.433 138.641 127.835 139.078 127.27ZM139.942 127.938C139.61 128.367 139.447 128.805 139.453 129.252C139.459 129.699 139.59 130.128 139.845 130.538C140.101 130.948 140.438 131.315 140.856 131.638C141.274 131.961 141.715 132.196 142.179 132.342C142.644 132.488 143.094 132.509 143.531 132.404C143.968 132.299 144.352 132.032 144.684 131.603C145.015 131.174 145.177 130.735 145.168 130.286C145.16 129.837 145.026 129.406 144.768 128.994C144.51 128.581 144.171 128.213 143.753 127.89C143.335 127.567 142.895 127.333 142.434 127.189C141.972 127.045 141.525 127.026 141.091 127.133C140.656 127.24 140.274 127.508 139.942 127.938Z" fill="white"/>
<path d="M135.342 136.569L138.72 139.802L137.879 140.68L132.166 135.211L133.007 134.333L133.974 135.259L134.031 135.199C133.869 134.788 133.821 134.343 133.889 133.866C133.958 133.391 134.2 132.938 134.613 132.506C134.955 132.149 135.337 131.907 135.759 131.778C136.183 131.653 136.63 131.662 137.1 131.807C137.571 131.955 138.05 132.261 138.536 132.727L142.167 136.202L141.326 137.08L137.755 133.661C137.339 133.263 136.895 133.061 136.424 133.057C135.95 133.055 135.539 133.236 135.19 133.601C134.981 133.819 134.825 134.094 134.72 134.427C134.613 134.762 134.602 135.116 134.685 135.491C134.766 135.868 134.985 136.227 135.342 136.569Z" fill="white"/>
<path d="M131.102 136.085L136.273 142.069L135.385 142.837L134.604 141.933L134.542 141.987C134.688 142.377 134.699 142.788 134.572 143.219C134.446 143.651 134.204 144.021 133.845 144.331C133.778 144.389 133.692 144.461 133.589 144.546C133.485 144.631 133.405 144.693 133.349 144.733L132.541 143.798C132.578 143.779 132.66 143.729 132.785 143.648C132.91 143.572 133.033 143.481 133.155 143.375C133.446 143.124 133.653 142.838 133.776 142.519C133.899 142.204 133.935 141.883 133.883 141.555C133.831 141.233 133.688 140.936 133.455 140.666L130.182 136.88L131.102 136.085Z" fill="white"/>
<path d="M123.734 141.878L128.15 148.44L127.141 149.118L122.726 142.556L123.734 141.878ZM128.373 149.878C128.569 149.746 128.784 149.699 129.016 149.737C129.246 149.777 129.424 149.891 129.551 150.079C129.677 150.267 129.716 150.475 129.666 150.703C129.614 150.932 129.489 151.113 129.293 151.245C129.096 151.378 128.883 151.424 128.654 151.384C128.421 151.346 128.242 151.233 128.115 151.045C127.989 150.857 127.952 150.648 128.004 150.418C128.053 150.191 128.176 150.011 128.373 149.878Z" fill="white"/>
<path d="M122.023 148.609L119.695 144.46L120.754 143.866L124.625 150.762L123.602 151.337L122.997 150.259L122.907 150.31C122.942 150.751 122.854 151.17 122.644 151.567C122.436 151.968 122.072 152.314 121.551 152.606C121.084 152.869 120.621 153.002 120.164 153.007C119.707 153.015 119.274 152.881 118.862 152.604C118.453 152.33 118.083 151.899 117.754 151.313L115.294 146.93L116.354 146.335L118.773 150.646C119.077 151.188 119.455 151.531 119.906 151.675C120.359 151.823 120.831 151.759 121.322 151.483C121.66 151.293 121.921 151.05 122.105 150.754C122.286 150.459 122.374 150.129 122.369 149.762C122.364 149.395 122.248 149.01 122.023 148.609Z" fill="white"/>
<path d="M114.093 156.079L113.674 155.138L117.418 153.472L117.837 154.412L114.093 156.079ZM117.516 156.629L116.406 157.124L113.341 150.237C113.201 149.923 113.051 149.708 112.89 149.592C112.728 149.48 112.563 149.43 112.395 149.44C112.225 149.456 112.058 149.5 111.895 149.572C111.773 149.627 111.675 149.678 111.603 149.725C111.531 149.776 111.474 149.816 111.431 149.847L110.761 148.95C110.824 148.888 110.917 148.813 111.039 148.725C111.16 148.634 111.324 148.542 111.531 148.45C111.844 148.31 112.182 148.241 112.543 148.242C112.901 148.244 113.24 148.339 113.56 148.527C113.878 148.716 114.13 149.021 114.317 149.441L117.516 156.629Z" fill="white"/>
<path d="M108.922 149.608L111.533 157.074L110.424 157.462L110.03 156.334L109.952 156.361C109.945 156.778 109.804 157.164 109.528 157.519C109.252 157.874 108.89 158.129 108.443 158.285C108.359 158.315 108.253 158.35 108.126 158.391C107.998 158.432 107.901 158.461 107.834 158.477L107.426 157.31C107.468 157.306 107.562 157.29 107.708 157.26C107.852 157.236 108.001 157.196 108.153 157.143C108.516 157.016 108.813 156.827 109.045 156.575C109.275 156.327 109.426 156.042 109.498 155.718C109.568 155.399 109.545 155.071 109.427 154.734L107.775 150.01L108.922 149.608Z" fill="white"/>
<path d="M100.646 151.949C101.339 151.778 101.988 151.793 102.593 151.994C103.194 152.195 103.714 152.557 104.154 153.078C104.59 153.599 104.906 154.257 105.102 155.05C105.299 155.85 105.327 156.584 105.184 157.252C105.038 157.921 104.745 158.485 104.307 158.943C103.865 159.402 103.297 159.717 102.604 159.888C101.911 160.059 101.264 160.043 100.662 159.842C100.058 159.641 99.5367 159.278 99.0996 158.753C98.6592 158.229 98.3403 157.567 98.143 156.767C97.9473 155.974 97.9229 155.244 98.0699 154.578C98.2135 153.914 98.5062 153.352 98.9481 152.893C99.3866 152.435 99.9525 152.12 100.646 151.949ZM100.907 153.009C100.381 153.139 99.9806 153.381 99.7073 153.734C99.4339 154.088 99.2698 154.505 99.2151 154.985C99.1603 155.466 99.1962 155.962 99.3228 156.476C99.4494 156.989 99.649 157.447 99.9217 157.85C100.194 158.253 100.534 158.549 100.942 158.739C101.349 158.928 101.816 158.958 102.343 158.828C102.869 158.698 103.269 158.455 103.541 158.097C103.814 157.74 103.977 157.32 104.031 156.836C104.085 156.353 104.049 155.854 103.922 155.341C103.796 154.828 103.596 154.371 103.324 153.972C103.053 153.572 102.713 153.279 102.307 153.093C101.9 152.907 101.434 152.879 100.907 153.009Z" fill="white"/>
<path d="M86.7386 161.986L89.0138 153.866L90.2455 153.766L93.8006 161.413L92.4867 161.52L89.8007 155.414L89.7186 155.421L88.0524 161.88L86.7386 161.986Z" fill="white"/>
<path d="M85.3606 154.001V161.91H84.1454V154.001H85.3606ZM84.7427 163.228C84.9795 163.228 85.1838 163.309 85.3554 163.47C85.5236 163.632 85.6077 163.826 85.6077 164.052C85.6077 164.279 85.5236 164.473 85.3554 164.634C85.1838 164.795 84.9795 164.876 84.7427 164.876C84.5058 164.876 84.3033 164.795 84.1351 164.634C83.9634 164.473 83.8776 164.279 83.8776 164.052C83.8776 163.826 83.9634 163.632 84.1351 163.47C84.3033 163.309 84.5058 163.228 84.7427 163.228Z" fill="white"/>
<path d="M79.0745 153.627C79.7314 153.68 80.2979 153.893 80.7739 154.266C81.2497 154.642 81.6048 155.146 81.8394 155.779C82.0736 156.414 82.1569 157.149 82.0891 157.984C82.0219 158.812 81.8216 159.519 81.4882 160.105C81.1547 160.691 80.7214 161.129 80.188 161.42C79.6547 161.711 79.0562 161.829 78.3924 161.776C77.8792 161.734 77.4807 161.615 77.1969 161.42C76.9094 161.228 76.6957 161.018 76.5558 160.79C76.4122 160.564 76.3015 160.38 76.2236 160.236L76.121 160.227L75.806 164.107L74.5948 164.009L75.4481 153.498L76.6182 153.593L76.5199 154.804L76.6636 154.816C76.7642 154.679 76.9055 154.508 77.0875 154.303C77.2693 154.101 77.5193 153.926 77.8377 153.78C78.1559 153.637 78.5681 153.586 79.0745 153.627ZM78.8219 154.702C78.3361 154.662 77.9152 154.756 77.5594 154.982C77.2032 155.211 76.9196 155.544 76.7084 155.982C76.497 156.423 76.3671 156.941 76.3188 157.536C76.271 158.125 76.3147 158.647 76.45 159.102C76.585 159.561 76.8101 159.927 77.1254 160.2C77.4404 160.477 77.8443 160.636 78.337 160.676C78.8502 160.717 79.2886 160.62 79.6521 160.385C80.012 160.152 80.2956 159.819 80.5031 159.384C80.7069 158.953 80.8312 158.461 80.8762 157.906C80.9218 157.345 80.8776 156.828 80.7438 156.356C80.6062 155.887 80.379 155.503 80.0622 155.205C79.7418 154.911 79.3283 154.743 78.8219 154.702Z" fill="white"/>
<path d="M70.6052 152.449C71.3537 152.592 71.968 152.88 72.4478 153.314C72.9237 153.751 73.2513 154.296 73.4309 154.949C73.6064 155.604 73.6182 156.33 73.4664 157.126C73.3147 157.921 73.0359 158.595 72.6301 159.147C72.2204 159.701 71.7217 160.099 71.134 160.34C70.5424 160.583 69.8959 160.638 69.1945 160.504C68.7899 160.427 68.4032 160.284 68.0344 160.073C67.6656 159.863 67.3483 159.576 67.0825 159.21C66.816 158.849 66.6339 158.402 66.5363 157.869C66.4386 157.337 66.4589 156.708 66.5972 155.983L66.6937 155.477L72.6823 156.62L72.4855 157.651L67.7108 156.741C67.6272 157.179 67.6402 157.587 67.75 157.964C67.8563 158.341 68.0507 158.66 68.3331 158.92C68.6121 159.179 68.9675 159.35 69.3991 159.432C69.8745 159.523 70.3084 159.483 70.7007 159.313C71.0891 159.146 71.4116 158.893 71.6685 158.555C71.9253 158.216 72.0946 157.832 72.1763 157.404L72.3075 156.716C72.4194 156.129 72.4131 155.613 72.2886 155.166C72.1601 154.722 71.934 154.359 71.6104 154.077C71.2861 153.799 70.8828 153.613 70.4006 153.522C70.087 153.462 69.7954 153.452 69.5258 153.491C69.2522 153.533 69.0056 153.626 68.786 153.769C68.5658 153.916 68.3794 154.115 68.2268 154.365L67.1354 153.821C67.3314 153.453 67.601 153.148 67.9442 152.906C68.2868 152.668 68.6845 152.506 69.1376 152.421C69.5899 152.339 70.0791 152.349 70.6052 152.449Z" fill="white"/>
<path d="M63.6065 150.638C64.2897 150.845 64.8397 151.19 65.2566 151.672C65.6702 152.153 65.9327 152.729 66.0441 153.402C66.1523 154.073 66.0876 154.8 65.8501 155.581C65.6106 156.37 65.2587 157.014 64.7944 157.516C64.3267 158.016 63.7873 158.35 63.1761 158.52C62.5617 158.688 61.9128 158.669 61.2297 158.461C60.5465 158.254 59.9981 157.91 59.5845 157.429C59.1676 156.947 58.9056 156.369 58.7984 155.694C58.688 155.018 58.7525 154.286 58.992 153.498C59.2295 152.716 59.5815 152.077 60.0482 151.58C60.5116 151.082 61.0505 150.749 61.6649 150.581C62.2761 150.411 62.9233 150.43 63.6065 150.638ZM63.2892 151.682C62.7702 151.524 62.3028 151.528 61.887 151.692C61.4711 151.856 61.1169 152.131 60.8242 152.515C60.5315 152.9 60.3084 153.345 60.1547 153.851C60.0011 154.357 59.9383 154.853 59.9666 155.339C59.9948 155.824 60.1355 156.253 60.3887 156.624C60.6419 156.995 61.028 157.259 61.547 157.417C62.0659 157.575 62.5338 157.57 62.9507 157.402C63.3675 157.235 63.7228 156.957 64.0164 156.569C64.3101 156.181 64.5337 155.734 64.6874 155.228C64.8411 154.722 64.9033 154.228 64.874 153.746C64.8448 153.263 64.7031 152.838 64.4489 152.47C64.1947 152.103 63.8081 151.84 63.2892 151.682Z" fill="white"/>
<path d="M53.8097 150.961C54.0406 151.067 54.2008 151.241 54.2904 151.482C54.3799 151.723 54.3717 151.959 54.2658 152.19C54.1599 152.421 53.9864 152.581 53.7452 152.671C53.504 152.76 53.2679 152.752 53.037 152.646C52.8061 152.541 52.6459 152.367 52.5563 152.126C52.4668 151.885 52.475 151.648 52.5809 151.418C52.651 151.265 52.7544 151.142 52.891 151.05C53.0246 150.956 53.1732 150.9 53.3369 150.881C53.4961 150.863 53.6537 150.89 53.8097 150.961Z" fill="white"/>
<path d="M48.9201 144.307L46.5618 152.231L45.4972 151.526L47.4157 145.534L47.347 145.488L42.5952 149.604L41.5134 148.887L43.4549 142.935L43.3862 142.889L38.6285 146.977L37.5639 146.272L43.9403 141.008L44.9363 141.668L43.0236 147.689L43.1266 147.757L47.9242 143.647L48.9201 144.307Z" fill="white"/>
<path d="M39.2063 136.971C39.5855 137.299 39.8679 137.668 40.0535 138.078C40.2368 138.49 40.3016 138.912 40.2477 139.341C40.1916 139.774 39.9952 140.185 39.6585 140.574C39.3622 140.917 39.0545 141.137 38.7354 141.233C38.414 141.332 38.0876 141.345 37.7561 141.271C37.4247 141.198 37.0968 141.074 36.7725 140.898C36.4433 140.722 36.124 140.532 35.8147 140.329C35.4107 140.061 35.0856 139.841 34.8394 139.67C34.5884 139.498 34.3852 139.397 34.2297 139.367C34.0716 139.335 33.9285 139.393 33.8006 139.541L33.7737 139.572C33.4414 139.956 33.2885 140.346 33.3148 140.741C33.3385 141.133 33.5621 141.512 33.9854 141.878C34.4243 142.258 34.8515 142.459 35.267 142.482C35.6824 142.506 36.035 142.452 36.3249 142.321L36.9282 143.387C36.4581 143.616 36.0057 143.72 35.5709 143.698C35.1312 143.676 34.7221 143.572 34.3434 143.385C33.9599 143.199 33.6175 142.976 33.3163 142.716C33.1241 142.549 32.9235 142.335 32.7146 142.073C32.5008 141.811 32.3376 141.509 32.2251 141.167C32.11 140.822 32.0968 140.441 32.1856 140.023C32.2745 139.606 32.5243 139.159 32.935 138.684L36.3424 134.741L37.2618 135.536L36.5615 136.346L36.6082 136.387C36.7828 136.311 37.0068 136.261 37.2802 136.239C37.5535 136.217 37.8559 136.258 38.1872 136.363C38.5186 136.468 38.8582 136.671 39.2063 136.971ZM38.3522 137.676C37.9886 137.362 37.6204 137.168 37.2476 137.096C36.8722 137.021 36.5233 137.041 36.2007 137.157C35.8756 137.271 35.6053 137.453 35.3898 137.702L34.6625 138.543C34.7419 138.53 34.8646 138.562 35.0308 138.637C35.192 138.713 35.3707 138.811 35.5668 138.93C35.7581 139.05 35.9432 139.169 36.1222 139.288C36.2964 139.406 36.4384 139.502 36.5483 139.574C36.8142 139.75 37.0813 139.892 37.3497 140.001C37.6132 140.111 37.8681 140.152 38.1144 140.125C38.3557 140.097 38.5774 139.967 38.7795 139.733C39.0556 139.414 39.1461 139.07 39.0512 138.702C38.9514 138.335 38.7184 137.993 38.3522 137.676Z" fill="white"/>
<path d="M27.2021 136.589L27.946 135.877L30.7803 138.837L30.0364 139.549L27.2021 136.589ZM27.8416 139.997L27.0012 139.119L32.4466 133.906C32.6945 133.669 32.8461 133.455 32.9012 133.264C32.9515 133.073 32.9431 132.901 32.8761 132.746C32.8042 132.592 32.7065 132.45 32.5831 132.321C32.4905 132.224 32.4096 132.15 32.3403 132.097C32.2686 132.047 32.2112 132.007 32.1681 131.977L32.7858 131.044C32.8651 131.082 32.9669 131.144 33.0913 131.229C33.2182 131.312 33.3599 131.435 33.5166 131.599C33.754 131.847 33.9333 132.141 34.0546 132.481C34.1735 132.818 34.1986 133.17 34.1299 133.535C34.0589 133.898 33.8572 134.238 33.525 134.556L27.8416 139.997Z" fill="white"/>
<path d="M29.5917 126.852C30.0516 127.433 30.3102 128.043 30.3677 128.68C30.4252 129.317 30.3023 129.94 29.9992 130.547C29.696 131.154 29.2348 131.703 28.6154 132.192C27.9853 132.691 27.3377 133.014 26.6726 133.164C26.0027 133.313 25.3667 133.286 24.7648 133.084C24.158 132.881 23.6331 132.499 23.1903 131.939C22.8454 131.503 22.6153 131.046 22.5001 130.568C22.3849 130.091 22.3844 129.625 22.4985 129.171C22.6126 128.718 22.8422 128.311 23.1874 127.951L23.9411 128.904C23.7158 129.2 23.5931 129.56 23.573 129.983C23.5481 130.405 23.7017 130.826 24.0338 131.246C24.3276 131.618 24.6822 131.867 25.0975 131.994C25.508 132.12 25.95 132.123 26.4235 132.002C26.8923 131.881 27.3609 131.635 27.8294 131.265C28.3087 130.886 28.6665 130.48 28.9027 130.048C29.1368 129.614 29.2425 129.18 29.2198 128.748C29.1949 128.312 29.0335 127.906 28.7354 127.529C28.5395 127.281 28.3187 127.09 28.0728 126.956C27.827 126.823 27.5679 126.75 27.2956 126.737C27.0233 126.725 26.7507 126.779 26.4777 126.898L25.724 125.945C26.1328 125.709 26.568 125.582 27.0297 125.563C27.4866 125.543 27.9385 125.638 28.3855 125.849C28.8277 126.06 29.2298 126.394 29.5917 126.852Z" fill="white"/>
<path d="M22.4074 125.268L26.4309 122.729L27.0794 123.757L18.1615 129.385L17.513 128.357L20.7875 126.291L20.7325 126.204C20.2882 126.265 19.8654 126.203 19.4643 126.018C19.0585 125.831 18.6898 125.475 18.3582 124.95C18.0706 124.494 17.9101 124.037 17.8768 123.579C17.8406 123.123 17.9502 122.683 18.2056 122.258C18.4562 121.831 18.8689 121.437 19.4437 121.074L23.6937 118.392L24.3422 119.42L20.162 122.058C19.6307 122.393 19.307 122.79 19.1907 123.249C19.0698 123.707 19.1623 124.179 19.4682 124.663C19.6807 125 19.9424 125.257 20.2532 125.434C20.5622 125.609 20.9017 125.687 21.2716 125.669C21.6398 125.647 22.0184 125.514 22.4074 125.268Z" fill="white"/>
<path d="M20.4731 111.167C20.7537 111.823 20.8437 112.466 20.743 113.095C20.6409 113.721 20.3683 114.293 19.9252 114.811C19.4806 115.326 18.8828 115.744 18.1315 116.065C17.3739 116.388 16.6539 116.534 15.9715 116.501C15.2878 116.464 14.6845 116.267 14.1615 115.908C13.6372 115.546 13.2348 115.037 12.9542 114.38C12.6736 113.723 12.5843 113.082 12.6863 112.456C12.787 111.827 13.0612 111.254 13.5089 110.738C13.9552 110.219 14.5571 109.797 15.3147 109.474C16.066 109.153 16.7819 109.011 17.4625 109.049C18.1417 109.083 18.7435 109.281 19.2678 109.643C19.7907 110.002 20.1925 110.51 20.4731 111.167ZM19.4693 111.596C19.2562 111.097 18.953 110.741 18.5597 110.528C18.1664 110.316 17.7284 110.221 17.2456 110.244C16.7628 110.268 16.2784 110.383 15.7923 110.591C15.3062 110.799 14.8862 111.07 14.5325 111.404C14.1788 111.738 13.9413 112.121 13.8201 112.554C13.6988 112.987 13.7448 113.452 13.9579 113.951C14.1711 114.45 14.4759 114.805 14.8723 115.016C15.2688 115.227 15.71 115.321 16.1959 115.296C16.6818 115.271 17.1678 115.155 17.6539 114.947C18.1401 114.739 18.5584 114.469 18.909 114.136C19.2595 113.804 19.4938 113.422 19.6119 112.991C19.73 112.559 19.6825 112.094 19.4693 111.596Z" fill="white"/>
<path d="M14.184 103.333L9.71041 104.692L9.35718 103.529L16.9248 101.23L17.278 102.393L15.997 102.782L16.021 102.861C16.4591 102.922 16.8698 103.098 17.2529 103.391C17.6327 103.685 17.9094 104.117 18.083 104.689C18.2267 105.162 18.2509 105.614 18.1558 106.044C18.0573 106.476 17.8298 106.861 17.4732 107.199C17.1134 107.538 16.6116 107.805 15.9678 108L11.1592 109.461L10.806 108.299L15.5358 106.862C16.0876 106.694 16.4808 106.406 16.7155 105.997C16.9491 105.586 16.9926 105.138 16.8459 104.655C16.7581 104.366 16.5949 104.095 16.3563 103.841C16.1167 103.584 15.8132 103.4 15.4459 103.289C15.0776 103.175 14.6569 103.189 14.184 103.333Z" fill="white"/>
<path d="M16.6926 99.9004L8.94105 101.471L8.70789 100.321L9.87869 100.083L9.86233 100.003C9.45016 99.939 9.08714 99.7463 8.77327 99.4247C8.45941 99.103 8.25543 98.71 8.16135 98.2457C8.14362 98.1582 8.12315 98.0486 8.09992 97.9167C8.0767 97.7848 8.06163 97.6845 8.05473 97.6159L9.2659 97.3704C9.26399 97.4128 9.2676 97.5084 9.27673 97.6572C9.28181 97.8033 9.30038 97.9554 9.33242 98.1135C9.40878 98.4903 9.55602 98.8107 9.77414 99.0747C9.98821 99.3361 10.2506 99.5246 10.5612 99.6403C10.8678 99.7533 11.1961 99.7743 11.546 99.7034L16.4512 98.7094L16.6926 99.9004Z" fill="white"/>
<path d="M15.255 90.5406L7.36946 91.1502L7.27581 89.9386L15.1614 89.329L15.255 90.5406ZM6.00758 90.6357C6.02583 90.8718 5.96115 91.0817 5.81351 91.2653C5.66562 91.4454 5.47872 91.5442 5.25284 91.5617C5.02695 91.5791 4.82709 91.5102 4.65327 91.355C4.47918 91.1963 4.38301 90.9988 4.36475 90.7627C4.3465 90.5265 4.41132 90.3184 4.55921 90.1382C4.70685 89.9547 4.89361 89.8542 5.1195 89.8367C5.34538 89.8192 5.54537 89.8899 5.71946 90.0486C5.89328 90.2038 5.98932 90.3995 6.00758 90.6357Z" fill="white"/>
<path d="M10.2365 85.622L14.9943 85.6403L14.9896 86.8555L7.08053 86.825L7.08506 85.651L8.32085 85.6558L8.32125 85.5528C7.92033 85.3659 7.59874 85.0831 7.35648 84.7046C7.11078 84.326 6.98908 83.8381 6.99138 83.2408C6.99345 82.7053 7.10511 82.2372 7.32635 81.8364C7.54417 81.4356 7.87492 81.1245 8.3186 80.9031C8.75885 80.6816 9.31539 80.5722 9.9882 80.5748L15.0137 80.5942L15.009 81.8094L10.0659 81.7903C9.44457 81.7879 8.95993 81.9474 8.61198 82.2687C8.2606 82.5901 8.08382 83.0322 8.08164 83.5952C8.08015 83.9831 8.16291 84.3301 8.32993 84.6363C8.49697 84.939 8.74149 85.1785 9.06349 85.3548C9.3855 85.5312 9.77649 85.6202 10.2365 85.622Z" fill="white"/>
<path d="M7.63511 75.0747L8.66016 75.1738L8.26566 79.2535L7.24061 79.1544L7.63511 75.0747ZM5.4695 77.7829L5.58646 76.5734L13.0898 77.2989C13.4315 77.332 13.6926 77.3072 13.873 77.2247C14.0503 77.1383 14.1756 77.0194 14.2489 76.8678C14.3191 76.7125 14.3628 76.5461 14.38 76.3684C14.3929 76.2351 14.3966 76.1251 14.3912 76.0384C14.3824 75.9513 14.3753 75.8816 14.37 75.8294L15.4804 75.6885C15.5032 75.7734 15.5229 75.8909 15.5394 76.0408C15.5594 76.191 15.5584 76.3789 15.5366 76.6044C15.5036 76.9461 15.3978 77.2738 15.2191 77.5876C15.0408 77.898 14.7909 78.1463 14.4694 78.3325C14.1482 78.5152 13.7587 78.5845 13.3009 78.5402L5.4695 77.7829Z" fill="white"/>
<path d="M15.8014 73.7763L8.01584 72.3837L8.22256 71.2281L9.39849 71.4384L9.413 71.3573C9.05317 71.1465 8.78653 70.8338 8.6131 70.4191C8.43967 70.0045 8.39466 69.564 8.47807 69.0977C8.49379 69.0099 8.51512 68.9003 8.54207 68.7692C8.56903 68.638 8.59193 68.5392 8.61077 68.4728L9.82726 68.6904C9.80987 68.7292 9.77804 68.8194 9.73178 68.961C9.68274 69.0987 9.64401 69.247 9.6156 69.4058C9.54791 69.7843 9.56687 70.1364 9.6725 70.4622C9.77536 70.784 9.94992 71.0558 10.1962 71.2777C10.4397 71.4956 10.7371 71.636 11.0886 71.6989L16.0153 72.5801L15.8014 73.7763Z" fill="white"/>
<path d="M17.8308 65.3802C17.6388 66.068 17.3067 66.6257 16.8345 67.0534C16.3632 67.4778 15.7927 67.7534 15.1229 67.88C14.4541 68.0034 13.7262 67.9552 12.9393 67.7356C12.1458 67.5141 11.4932 67.1769 10.9817 66.724C10.4711 66.2678 10.1241 65.7362 9.94075 65.129C9.75833 64.5185 9.7631 63.8694 9.95508 63.1817C10.1471 62.494 10.4787 61.9379 10.95 61.5135C11.4223 61.0858 11.9944 60.8107 12.6666 60.6883C13.3396 60.5625 14.0729 60.6104 14.8665 60.8319C15.6534 61.0516 16.3005 61.389 16.8078 61.8443C17.316 62.2962 17.6614 62.8274 17.8438 63.4379C18.0271 64.0451 18.0228 64.6925 17.8308 65.3802ZM16.7794 65.0867C16.9252 64.5643 16.9113 64.0971 16.7376 63.6851C16.564 63.2731 16.2815 62.9252 15.8903 62.6413C15.4991 62.3575 15.0489 62.1445 14.5397 62.0024C14.0305 61.8602 13.5335 61.8088 13.0485 61.848C12.5635 61.8873 12.1384 62.0377 11.7731 62.2993C11.4079 62.5608 11.1523 62.9528 11.0065 63.4752C10.8607 63.9976 10.8762 64.4653 11.0532 64.8782C11.2302 65.2911 11.516 65.64 11.9105 65.9248C12.305 66.2095 12.7568 66.423 13.266 66.5651C13.7752 66.7073 14.2706 66.7582 14.7523 66.7181C15.234 66.6779 15.6558 66.5265 16.0177 66.2641C16.3797 66.0016 16.6336 65.6091 16.7794 65.0867Z" fill="white"/>
<path d="M15.8775 48.4283L21.8253 54.4058L21.306 55.5272L12.9001 54.8576L13.454 53.6614L20.0905 54.3288L20.1252 54.254L15.3235 49.6244L15.8775 48.4283Z" fill="white"/>
<path d="M23.6288 50.9226L16.7462 47.0259L17.3449 45.9685L24.2275 49.8651L23.6288 50.9226ZM15.9035 45.8388C15.7868 46.0449 15.616 46.1829 15.391 46.2528C15.1678 46.3197 14.9576 46.2973 14.7604 46.1857C14.5632 46.0741 14.4359 45.9053 14.3784 45.6795C14.3225 45.4506 14.353 45.2331 14.4697 45.027C14.5864 44.8209 14.7563 44.6844 14.9796 44.6175C15.2046 44.5476 15.4156 44.5685 15.6128 44.6801C15.8099 44.7917 15.9364 44.962 15.9923 45.1908C16.0498 45.4167 16.0202 45.6327 15.9035 45.8388Z" fill="white"/>
<path d="M26.7945 46.0439C26.4245 46.5894 25.9602 46.9775 25.4013 47.2082C24.8397 47.437 24.226 47.4977 23.5604 47.3906C22.8919 47.2814 22.2111 46.9918 21.5179 46.5216C20.8304 46.0553 20.3138 45.5328 19.968 44.954C19.6223 44.3752 19.4542 43.7821 19.4638 43.1748C19.4734 42.5674 19.6651 41.9882 20.0389 41.437C20.328 41.0109 20.6273 40.7224 20.937 40.5716C21.2458 40.416 21.534 40.3335 21.8016 40.3243C22.0683 40.3102 22.2835 40.3048 22.4473 40.308L22.5051 40.2228L19.2834 38.0377L19.9656 37.032L28.6929 42.9514L28.0339 43.923L27.0282 43.2409L26.9473 43.3602C27.0165 43.515 27.0958 43.7222 27.1851 43.9819C27.2716 44.2397 27.3002 44.5431 27.2707 44.8923C27.2384 45.2396 27.0797 45.6234 26.7945 46.0439ZM25.9836 45.2948C26.2572 44.8914 26.3833 44.4792 26.3619 44.0582C26.3377 43.6352 26.1872 43.2242 25.9105 42.8249C25.6309 42.4238 25.2439 42.0555 24.7496 41.7203C24.261 41.3888 23.7852 41.1699 23.3224 41.0633C22.8567 40.9549 22.4272 40.9705 22.0338 41.1102C21.6376 41.2479 21.3008 41.5213 21.0233 41.9304C20.7343 42.3566 20.6028 42.7859 20.6288 43.2184C20.654 43.6461 20.8045 44.0571 21.0803 44.4516C21.3552 44.8413 21.7228 45.1922 22.183 45.5044C22.6489 45.8204 23.1204 46.0365 23.5974 46.1526C24.0735 46.264 24.5192 46.2552 24.9344 46.1262C25.3487 45.9924 25.6984 45.7153 25.9836 45.2948Z" fill="white"/>
<path d="M31.8758 39.3488C31.3838 39.9308 30.8309 40.3242 30.2172 40.5291C29.6031 40.7292 28.9676 40.7471 28.3108 40.5829C27.6536 40.4139 27.0156 40.0679 26.397 39.5449C25.7783 39.0218 25.3283 38.4482 25.047 37.8238C24.7653 37.1946 24.6638 36.5649 24.7425 35.9347C24.8208 35.2997 25.0905 34.7096 25.5514 34.1643C25.8174 33.8497 26.1324 33.5834 26.4966 33.3653C26.8607 33.1472 27.2672 33.0121 27.7158 32.9599C28.1619 32.9054 28.6408 32.9664 29.1525 33.1427C29.6642 33.3191 30.2018 33.6455 30.7655 34.122L31.1587 34.4544L27.2228 39.1103L26.4206 38.4321L29.5587 34.72C29.2179 34.4319 28.8562 34.243 28.4735 34.1533C28.0931 34.0609 27.7203 34.0739 27.3551 34.1922C26.9921 34.3079 26.6688 34.5335 26.3851 34.869C26.0726 35.2387 25.894 35.6361 25.8493 36.0612C25.8041 36.4815 25.8661 36.8868 26.0352 37.277C26.2043 37.6671 26.4553 38.003 26.7882 38.2844L27.323 38.7365C27.7792 39.1221 28.2323 39.3703 28.6825 39.4812C29.1323 39.5872 29.5594 39.5685 29.9639 39.425C30.3658 39.2792 30.7252 39.0189 31.0421 38.6441C31.2482 38.4002 31.4003 38.1512 31.4984 37.897C31.596 37.6379 31.6363 37.3776 31.6192 37.1159C31.5996 36.8521 31.5181 36.5922 31.3749 36.3362L32.3845 35.6524C32.6088 36.0038 32.7421 36.3885 32.7844 36.8064C32.8241 37.222 32.7697 37.648 32.6211 38.0842C32.4699 38.5183 32.2215 38.9398 31.8758 39.3488Z" fill="white"/>
<path d="M37.0633 33.9292C36.5457 34.4211 35.9745 34.7295 35.3498 34.8545C34.7275 34.977 34.0964 34.9209 33.4565 34.6861C32.8191 34.4489 32.2189 34.0343 31.6561 33.442C31.0886 32.8449 30.7014 32.2207 30.4945 31.5696C30.2902 30.9161 30.2651 30.2817 30.4191 29.6664C30.5757 29.0488 30.9127 28.4941 31.4303 28.0022C31.9478 27.5103 32.5178 27.2031 33.1401 27.0805C33.7648 26.9556 34.3971 27.0129 35.0369 27.2526C35.6792 27.4899 36.2841 27.9071 36.8516 28.5043C37.4145 29.0965 37.7969 29.7181 37.9988 30.3691C38.2033 31.0178 38.2272 31.6509 38.0707 32.2685C37.9166 32.8838 37.5808 33.4374 37.0633 33.9292ZM36.3113 33.138C36.7044 32.7643 36.9321 32.3561 36.9944 31.9134C37.0566 31.4706 36.9926 31.0271 36.8024 30.5827C36.6122 30.1384 36.335 29.7246 35.9708 29.3415C35.6066 28.9583 35.2063 28.6591 34.7698 28.4441C34.3334 28.229 33.8913 28.1401 33.4436 28.1772C32.9959 28.2144 32.5754 28.4198 32.1823 28.7934C31.7891 29.1671 31.5626 29.5765 31.5027 30.0218C31.4429 30.467 31.5092 30.9131 31.7018 31.3599C31.8944 31.8067 32.1728 32.2217 32.537 32.6049C32.9011 32.9881 33.3003 33.286 33.7344 33.4986C34.1684 33.7111 34.6082 33.7976 35.0535 33.7579C35.4989 33.7183 35.9181 33.5116 36.3113 33.138Z" fill="white"/>
<path d="M41.3211 25.4005C41.1157 25.5499 40.8859 25.6046 40.6318 25.5645C40.3776 25.5244 40.1758 25.4016 40.0264 25.1962C39.877 24.9908 39.8223 24.761 39.8624 24.5068C39.9025 24.2527 40.0253 24.0509 40.2307 23.9015C40.4361 23.752 40.6659 23.6974 40.9201 23.7375C41.1742 23.7776 41.376 23.9003 41.5254 24.1058C41.6244 24.2418 41.6805 24.3919 41.6939 24.5562C41.7101 24.7185 41.6865 24.8758 41.6232 25.028C41.5606 25.1753 41.4599 25.2995 41.3211 25.4005Z" fill="white"/>
<path d="M49.4819 24.3368L43.7246 18.4026L44.8605 17.8191L49.1479 22.4244L49.2212 22.3868L47.9568 16.2287L49.111 15.6358L53.3524 20.2416L53.4256 20.204L52.1889 14.0548L53.3248 13.4714L54.795 21.6077L53.7324 22.1535L49.4173 17.5393L49.3073 17.5958L50.5445 23.791L49.4819 24.3368Z" fill="white"/>
<path d="M60.9048 19.3029C60.433 19.4719 59.9729 19.5364 59.5247 19.4964C59.0753 19.4532 58.6767 19.3024 58.329 19.0441C57.9801 18.7826 57.7188 18.4094 57.5451 17.9247C57.3924 17.4981 57.3525 17.1222 57.4257 16.797C57.4976 16.4686 57.647 16.1781 57.8737 15.9255C58.1005 15.6729 58.3702 15.4486 58.6829 15.2528C58.9977 15.0525 59.3199 14.8678 59.6495 14.6987C60.0811 14.4785 60.4323 14.3035 60.703 14.1737C60.9758 14.0395 61.1636 13.9121 61.2662 13.7915C61.3721 13.6697 61.392 13.5167 61.326 13.3325L61.3122 13.2937C61.1408 12.8154 60.8768 12.4906 60.5202 12.3194C60.1667 12.147 59.7266 12.1551 59.1998 12.3438C58.6537 12.5394 58.2683 12.8124 58.0437 13.1627C57.8191 13.5129 57.6924 13.8464 57.6636 14.163L56.4389 14.1641C56.4707 13.6422 56.6031 13.1974 56.8359 12.8295C57.0709 12.4573 57.3627 12.1522 57.7114 11.9143C58.0622 11.672 58.425 11.4837 58.7999 11.3494C59.039 11.2638 59.3241 11.1945 59.6552 11.1415C59.9884 11.0842 60.3316 11.0907 60.685 11.161C61.0416 11.2302 61.3799 11.4062 61.7 11.689C62.0201 11.9718 62.286 12.4089 62.4979 13.0003L64.255 17.906L63.111 18.3158L62.7498 17.3075L62.6916 17.3283C62.672 17.5177 62.6046 17.7369 62.4896 17.9859C62.3746 18.235 62.19 18.4779 61.9358 18.7149C61.6815 18.9518 61.3379 19.1478 60.9048 19.3029ZM60.7112 18.2127C61.1637 18.0506 61.5132 17.8252 61.7598 17.5363C62.0096 17.2463 62.1633 16.9323 62.2209 16.5945C62.2818 16.2554 62.2567 15.9308 62.1456 15.6205L61.7705 14.5735C61.7429 14.649 61.6554 14.7405 61.5079 14.848C61.3625 14.9512 61.1895 15.0587 60.989 15.1706C60.7905 15.2782 60.5957 15.3808 60.4046 15.4784C60.2156 15.5716 60.0625 15.6483 59.9455 15.7085C59.6621 15.8537 59.4067 16.0163 59.1795 16.1962C58.9542 16.3716 58.7931 16.5734 58.6961 16.8014C58.6012 17.025 58.6058 17.2822 58.71 17.5731C58.8524 17.9706 59.1071 18.2184 59.4741 18.3167C59.8432 18.4106 60.2556 18.3759 60.7112 18.2127Z" fill="white"/>
<path d="M67.092 9.03492L67.3463 10.0329L63.3744 11.0447L63.1202 10.0468L67.092 9.03492ZM63.81 7.91564L64.9876 7.61564L66.8486 14.9207C66.9333 15.2533 67.0451 15.4905 67.184 15.6323C67.3253 15.7698 67.4797 15.8474 67.6471 15.865C67.817 15.8784 67.9885 15.863 68.1614 15.819C68.2912 15.7859 68.3959 15.7521 68.4757 15.7177C68.5546 15.6798 68.6178 15.6496 68.6651 15.6269L69.1741 16.6237C69.1019 16.674 68.9981 16.7323 68.8627 16.7987C68.7281 16.8684 68.5511 16.9312 68.3315 16.9871C67.9989 17.0719 67.6546 17.0834 67.2988 17.0217C66.9464 16.9592 66.6281 16.8083 66.3439 16.5689C66.0631 16.3287 65.8659 15.9858 65.7524 15.54L63.81 7.91564Z" fill="white"/>
<path d="M74.5043 15.8756C73.7716 15.9893 73.1138 15.9143 72.5309 15.6504C71.948 15.3866 71.467 14.9732 71.0878 14.4102C70.7086 13.8473 70.4584 13.1757 70.3373 12.3955C70.2141 11.6018 70.2512 10.8786 70.4486 10.2262C70.6489 9.56975 70.9854 9.02944 71.458 8.6052C71.9334 8.17705 72.524 7.90821 73.2295 7.79867C73.779 7.71336 74.2901 7.73823 74.7627 7.8733C75.2352 8.00837 75.6407 8.23722 75.9792 8.55986C76.3176 8.8825 76.5586 9.28279 76.7023 9.76072L75.5015 9.94715C75.3546 9.60519 75.1021 9.32132 74.744 9.09553C74.3887 8.86583 73.9465 8.79205 73.4173 8.87421C72.9492 8.94688 72.5577 9.13272 72.2429 9.43172C71.9309 9.72681 71.7107 10.1101 71.5825 10.5816C71.457 11.0492 71.4401 11.5782 71.5318 12.1684C71.6255 12.7722 71.8021 13.2832 72.0616 13.7015C72.3245 14.1192 72.6498 14.4248 73.0376 14.6182C73.4289 14.811 73.8619 14.8706 74.3368 14.7969C74.6489 14.7484 74.9237 14.6502 75.1613 14.5021C75.3988 14.3541 75.59 14.1646 75.7348 13.9337C75.8796 13.7028 75.9672 13.4391 75.9976 13.1425L77.1984 12.9561C77.2022 13.428 77.0988 13.8696 76.8882 14.2809C76.6805 14.6883 76.3747 15.0346 75.9708 15.3196C75.5698 15.6007 75.081 15.786 74.5043 15.8756Z" fill="white"/>
<path d="M78.9958 10.4231L79.2344 15.1749L78.0207 15.2358L77.4919 4.70364L78.7056 4.6427L78.8997 8.50999L79.0026 8.50483C79.1672 8.08755 79.4287 7.74962 79.7869 7.49104C80.1484 7.22885 80.6394 7.08218 81.2599 7.05103C81.7982 7.024 82.275 7.10833 82.6904 7.30401C83.1057 7.49626 83.4358 7.80793 83.6809 8.23901C83.9292 8.66649 84.0704 9.21965 84.1045 9.89848L84.3565 14.9177L83.1428 14.9787L82.8949 10.0417C82.8634 9.41429 82.6762 8.93734 82.3333 8.61085C81.9936 8.28076 81.5375 8.13009 80.965 8.15883C80.5673 8.1788 80.2149 8.2807 79.908 8.46453C79.6044 8.64819 79.3699 8.90571 79.2043 9.23711C79.0422 9.56834 78.9727 9.96365 78.9958 10.4231Z" fill="white"/>
<path d="M93.0366 15.6835C92.3274 15.6011 91.7247 15.3601 91.2285 14.9603C90.7358 14.561 90.3747 14.0404 90.1451 13.3986C89.9189 12.7572 89.853 12.0307 89.9472 11.2192C90.0423 10.4008 90.2736 9.70366 90.6411 9.12776C91.0121 8.55225 91.4832 8.1266 92.0543 7.85081C92.6289 7.57541 93.2708 7.4789 93.98 7.56128C94.6893 7.64366 95.2902 7.88453 95.783 8.28389C96.2791 8.68364 96.6401 9.20593 96.8658 9.85074C97.095 10.496 97.1621 11.2277 97.067 12.0461C96.9727 12.8576 96.7403 13.5495 96.3698 14.1216C96.0026 14.6941 95.5318 15.118 94.9572 15.3934C94.3861 15.6692 93.7459 15.7659 93.0366 15.6835ZM93.1626 14.5992C93.7013 14.6618 94.1606 14.5752 94.5405 14.3394C94.9204 14.1036 95.22 13.7703 95.4394 13.3396C95.6587 12.9089 95.7989 12.431 95.8599 11.9059C95.9209 11.3808 95.8942 10.8818 95.7798 10.4089C95.6654 9.93594 95.4505 9.53948 95.1352 9.21948C94.8199 8.89948 94.3928 8.70819 93.8541 8.64561C93.3153 8.58304 92.8558 8.67135 92.4755 8.91056C92.0952 9.14977 91.7952 9.48643 91.5755 9.92053C91.3557 10.3546 91.2153 10.8342 91.1543 11.3594C91.0933 11.8845 91.1202 12.3818 91.2351 12.8513C91.3499 13.3208 91.5651 13.7138 91.8808 14.0304C92.1966 14.347 92.6238 14.5366 93.1626 14.5992Z" fill="white"/>
<path d="M102.881 14.0713L103.915 9.51146L105.1 9.77999L103.352 17.4936L102.167 17.225L102.463 15.9193L102.382 15.9011C102.113 16.2519 101.756 16.5213 101.312 16.7093C100.869 16.894 100.356 16.9204 99.7738 16.7884C99.2917 16.6792 98.887 16.4766 98.5598 16.1807C98.2334 15.8815 98.0116 15.4933 97.8945 15.0163C97.7781 14.5358 97.7942 13.9675 97.9429 13.3113L99.0534 8.41001L100.239 8.67854L99.1462 13.4995C99.0188 14.062 99.0745 14.5462 99.3133 14.9523C99.5555 15.3592 99.9227 15.6184 100.415 15.7299C100.709 15.7966 101.026 15.7892 101.365 15.7076C101.707 15.6267 102.017 15.4541 102.295 15.1898C102.577 14.9262 102.772 14.5534 102.881 14.0713Z" fill="white"/>
<path d="M104.641 17.9411L107.11 10.4276L108.226 10.7942L107.853 11.929L107.931 11.9548C108.19 11.628 108.537 11.4078 108.972 11.2942C109.407 11.1806 109.849 11.1977 110.299 11.3457C110.384 11.3735 110.489 11.41 110.616 11.4551C110.742 11.5002 110.836 11.5367 110.899 11.5646L110.513 12.7386C110.477 12.716 110.393 12.6718 110.259 12.6062C110.129 12.5383 109.988 12.4792 109.835 12.4288C109.469 12.3088 109.118 12.2782 108.781 12.3371C108.448 12.3939 108.154 12.5286 107.9 12.7414C107.65 12.9519 107.469 13.2268 107.358 13.5659L105.795 18.3206L104.641 17.9411Z" fill="white"/>
<path d="M113.174 21.1662L116.525 14.0018L117.625 14.5165L114.275 21.681L113.174 21.1662ZM117.643 13.0694C117.428 12.9691 117.277 12.8095 117.19 12.5907C117.106 12.3733 117.112 12.1619 117.208 11.9567C117.304 11.7515 117.462 11.6114 117.683 11.5365C117.907 11.4631 118.126 11.4765 118.341 11.5768C118.555 11.6772 118.705 11.836 118.789 12.0534C118.876 12.2723 118.871 12.4843 118.775 12.6896C118.679 12.8948 118.519 13.0341 118.296 13.1076C118.075 13.1825 117.857 13.1698 117.643 13.0694Z" fill="white"/>
<path d="M119.915 19.1973L117.556 23.3289L116.501 22.7264L120.423 15.8582L121.442 16.4403L120.829 17.5135L120.919 17.5646C121.279 17.3077 121.683 17.1671 122.132 17.1427C122.583 17.1153 123.067 17.2497 123.586 17.5459C124.051 17.8114 124.403 18.1392 124.643 18.5291C124.885 18.9161 124.993 19.3572 124.967 19.8524C124.943 20.3446 124.764 20.8828 124.43 21.4671L121.938 25.8313L120.883 25.2287L123.334 20.936C123.642 20.3965 123.742 19.8962 123.634 19.4351C123.527 18.971 123.229 18.5994 122.741 18.3202C122.404 18.1279 122.061 18.029 121.712 18.0235C121.366 18.0198 121.038 18.1146 120.726 18.308C120.414 18.5014 120.143 18.7979 119.915 19.1973Z" fill="white"/>
<path d="M130.599 22.281L130.005 23.1226L126.656 20.7602L127.249 19.9187L130.599 22.281ZM129.318 19.0587L130.311 19.7591L125.966 25.9194C125.768 26.1999 125.66 26.439 125.643 26.6366C125.63 26.8334 125.671 27.0012 125.767 27.1399C125.867 27.2778 125.99 27.3982 126.136 27.501C126.245 27.5782 126.339 27.6359 126.417 27.6741C126.497 27.7096 126.561 27.7379 126.609 27.7592L126.182 28.7937C126.097 28.7715 125.985 28.7304 125.847 28.6706C125.706 28.6136 125.543 28.5198 125.358 28.3892C125.078 28.1913 124.845 27.9371 124.661 27.6266C124.48 27.318 124.388 26.9779 124.385 26.6064C124.385 26.2369 124.518 25.8642 124.783 25.4883L129.318 19.0587Z" fill="white"/>
<path d="M127.703 30.0327L132.765 23.9556L133.667 24.707L132.902 25.6249L132.965 25.6776C133.327 25.4692 133.73 25.3922 134.177 25.4466C134.623 25.501 135.028 25.6798 135.392 25.9829C135.46 26.0401 135.545 26.1128 135.646 26.2011C135.746 26.2894 135.821 26.3582 135.869 26.4074L135.078 27.357C135.053 27.3227 134.991 27.2504 134.89 27.1401C134.795 27.0294 134.685 26.9224 134.561 26.8191C134.266 26.573 133.95 26.4153 133.615 26.346C133.285 26.2761 132.962 26.2934 132.647 26.3976C132.337 26.5014 132.068 26.6904 131.84 26.9648L128.636 30.8104L127.703 30.0327Z" fill="white"/>
<path d="M133.76 35.7064C133.256 35.2016 132.933 34.6384 132.792 34.017C132.654 33.3981 132.694 32.7657 132.912 32.1201C133.133 31.4768 133.532 30.8663 134.11 30.2886C134.693 29.7061 135.307 29.3031 135.952 29.0798C136.6 28.8589 137.234 28.8177 137.853 28.956C138.474 29.0968 139.038 29.4197 139.542 29.9245C140.047 30.4294 140.369 30.9914 140.507 31.6103C140.648 32.2317 140.607 32.8653 140.383 33.5109C140.163 34.159 139.761 34.7743 139.178 35.3569C138.601 35.9346 137.989 36.3327 137.343 36.5512C136.7 36.772 136.068 36.8121 135.446 36.6713C134.827 36.533 134.265 36.2113 133.76 35.7064ZM134.532 34.9346C134.916 35.3181 135.33 35.5353 135.774 35.5863C136.218 35.6373 136.66 35.562 137.099 35.3605C137.539 35.1591 137.945 34.8714 138.319 34.4976C138.693 34.1238 138.982 33.716 139.186 33.2743C139.389 32.8325 139.467 32.3883 139.419 31.9417C139.37 31.495 139.154 31.0799 138.771 30.6964C138.387 30.3129 137.972 30.0969 137.525 30.0483C137.079 29.9998 136.634 30.0775 136.193 30.2814C135.751 30.4853 135.343 30.7741 134.969 31.1479C134.595 31.5217 134.308 31.9283 134.106 32.3676C133.905 32.807 133.83 33.2488 133.881 33.693C133.932 34.1372 134.149 34.551 134.532 34.9346Z" fill="white"/>
<path d="M149.588 42.4032L141.464 44.6609L140.74 43.6589L145.441 36.6583L146.213 37.7271L142.38 43.1862L142.429 43.253L148.817 41.3344L149.588 42.4032Z" fill="white"/>
<path d="M143.614 47.9258L150.379 43.8281L151.008 44.8675L144.243 48.9652L143.614 47.9258ZM151.826 43.6737C151.703 43.4711 151.667 43.2546 151.716 43.0242C151.767 42.7967 151.889 42.6243 152.083 42.5069C152.276 42.3896 152.486 42.361 152.711 42.4213C152.938 42.4845 153.113 42.6174 153.235 42.82C153.358 43.0226 153.394 43.2376 153.343 43.4651C153.294 43.6955 153.173 43.8694 152.979 43.9867C152.785 44.1041 152.575 44.1312 152.348 44.068C152.123 44.0077 151.949 43.8763 151.826 43.6737Z" fill="white"/>
<path d="M146.344 53.1148C146.049 52.5252 145.938 51.9303 146.011 51.33C146.086 50.7283 146.333 50.1634 146.753 49.6354C147.175 49.1059 147.761 48.6539 148.51 48.2795C149.253 47.9082 149.962 47.7134 150.635 47.6951C151.309 47.6769 151.909 47.8206 152.434 48.1262C152.959 48.4318 153.37 48.8825 153.668 49.4782C153.898 49.9388 154.003 50.3411 153.983 50.6849C153.968 51.0304 153.898 51.322 153.775 51.5599C153.657 51.7994 153.557 51.9897 153.474 52.131L153.52 52.2231L157.002 50.483L157.545 51.5701L148.112 56.2838L147.587 55.2336L148.674 54.6904L148.61 54.5615C148.441 54.5461 148.221 54.5138 147.951 54.4646C147.684 54.4139 147.405 54.2902 147.115 54.0936C146.828 53.8955 146.571 53.5692 146.344 53.1148ZM147.394 52.7742C147.612 53.2103 147.91 53.522 148.287 53.7094C148.668 53.8952 149.1 53.9652 149.584 53.9192C150.071 53.8718 150.581 53.7145 151.115 53.4476C151.643 53.1836 152.067 52.8759 152.387 52.5245C152.709 52.1714 152.906 51.7892 152.976 51.3778C153.05 50.9649 152.977 50.5373 152.756 50.0951C152.526 49.6345 152.216 49.3097 151.826 49.1208C151.44 48.9334 151.008 48.8635 150.529 48.911C150.055 48.96 149.569 49.1088 149.071 49.3573C148.568 49.609 148.149 49.9144 147.814 50.2735C147.484 50.6342 147.273 51.0272 147.183 51.4524C147.097 51.8791 147.167 52.3198 147.394 52.7742Z" fill="white"/>
<path d="M149.753 60.9947C149.488 60.2802 149.417 59.6053 149.541 58.9701C149.668 58.337 149.965 57.7748 150.431 57.2834C150.901 56.7941 151.516 56.4086 152.275 56.1269C153.035 55.8451 153.756 55.7352 154.438 55.7971C155.124 55.861 155.722 56.0821 156.232 56.4603C156.747 56.8406 157.128 57.3655 157.377 58.035C157.52 58.4212 157.597 58.8264 157.608 59.2508C157.619 59.6751 157.537 60.0954 157.362 60.5119C157.19 60.9271 156.902 61.3142 156.497 61.6731C156.091 62.0321 155.543 62.3399 154.851 62.5966L154.368 62.7757L152.248 57.0597L153.233 56.6944L154.923 61.2517C155.342 61.0965 155.684 60.8743 155.95 60.5852C156.218 60.2993 156.39 59.9682 156.466 59.592C156.544 59.219 156.506 58.8266 156.353 58.4146C156.185 57.9608 155.927 57.6099 155.578 57.362C155.235 57.1161 154.851 56.9709 154.428 56.9264C154.005 56.8819 153.589 56.9355 153.181 57.0871L152.524 57.3307C151.964 57.5384 151.525 57.811 151.207 58.1486C150.894 58.4882 150.7 58.8694 150.627 59.2922C150.556 59.7138 150.606 60.1548 150.777 60.615C150.888 60.9143 151.03 61.1691 151.203 61.3795C151.381 61.5919 151.588 61.7549 151.824 61.8687C152.063 61.9812 152.33 62.038 152.623 62.039L152.722 63.2544C152.306 63.277 151.906 63.204 151.521 63.0355C151.139 62.8658 150.795 62.6091 150.488 62.2653C150.185 61.9203 149.94 61.4967 149.753 60.9947Z" fill="white"/>
<path d="M151.873 68.0464C151.7 67.3538 151.712 66.7048 151.911 66.0994C152.11 65.4974 152.469 64.9755 152.989 64.5339C153.509 64.0956 154.165 63.7771 154.957 63.5785C155.757 63.3781 156.491 63.348 157.159 63.4883C157.829 63.6319 158.393 63.9221 158.853 64.3589C159.314 64.799 159.631 65.3653 159.805 66.0579C159.978 66.7505 159.965 67.3978 159.766 67.9999C159.567 68.6053 159.206 69.1276 158.683 69.5667C158.161 70.0091 157.5 70.3305 156.701 70.5309C155.908 70.7296 155.179 70.7567 154.513 70.6123C153.847 70.4712 153.284 70.1806 152.824 69.7405C152.364 69.3037 152.047 68.739 151.873 68.0464ZM152.932 67.781C153.064 68.307 153.307 68.7061 153.662 68.9781C154.017 69.2501 154.435 69.4126 154.915 69.4656C155.396 69.5185 155.892 69.4807 156.405 69.3522C156.918 69.2236 157.375 69.0222 157.777 68.748C158.179 68.4739 158.474 68.1327 158.662 67.7246C158.85 67.3166 158.878 66.8495 158.746 66.3234C158.614 65.7973 158.369 65.3986 158.011 65.1275C157.653 64.8563 157.232 64.6946 156.748 64.6425C156.264 64.5904 155.766 64.6286 155.253 64.7572C154.74 64.8857 154.285 65.0867 153.886 65.36C153.487 65.6334 153.196 65.9737 153.011 66.3809C152.827 66.7882 152.8 67.2549 152.932 67.781Z" fill="white"/>
<path d="M157.224 76.2297C157.196 75.9773 157.262 75.7505 157.422 75.5494C157.583 75.3483 157.789 75.2336 158.042 75.2053C158.294 75.1769 158.521 75.243 158.722 75.4035C158.923 75.564 159.038 75.7705 159.066 76.0229C159.095 76.2754 159.028 76.5021 158.868 76.7032C158.707 76.9043 158.501 77.0191 158.248 77.0474C158.081 77.0662 157.923 77.0407 157.774 76.9712C157.625 76.905 157.5 76.8068 157.399 76.6765C157.301 76.5492 157.243 76.4003 157.224 76.2297Z" fill="white"/>
</svg>
